<svg xmlns="http://www.w3.org/2000/svg" viewBox="0 0 256 256" role="img" aria-label="Earth logo">
  <defs>
    <radialGradient id="ocean" cx="36%" cy="30%" r="72%">
      <stop offset="0%" stop-color="#67e8f9" />
      <stop offset="55%" stop-color="#0ea5e9" />
      <stop offset="100%" stop-color="#1d4ed8" />
    </radialGradient>
    <linearGradient id="land" x1="0%" y1="0%" x2="100%" y2="100%">
      <stop offset="0%" stop-color="#bbf7d0" />
      <stop offset="100%" stop-color="#22c55e" />
    </linearGradient>
  </defs>
  <circle cx="128" cy="128" r="116" fill="url(#ocean)" />
  <path
    fill="url(#land)"
    d="M60 120c8-14 22-22 37-20 8 1 15-6 15-14 0-10 8-18 18-19 18-2 35 10 38 28 2 11-2 22-10 29-5 5-8 12-7 19 1 6-1 12-6 16-8 7-20 8-30 2-8-5-19-3-25 5-7 9-19 13-30 9-10-4-17-13-17-24 0-11 7-22 17-27z"
  />
  <path
    fill="url(#land)"
    d="M168 150c8-5 18-5 26 1 8 5 13 14 12 24-1 9-7 17-16 21-8 3-17 2-24-3-7-5-11-13-11-22 0-9 5-17 13-21z"
  />
  <circle cx="128" cy="128" r="116" fill="none" stroke="#0b1732" stroke-opacity=".15" stroke-width="8" />
</svg>
